<svg width="32" height="32" viewBox="0 0 32 32" fill="none" xmlns="http://www.w3.org/2000/svg">
<g id="github-vector 1">
<g id="Layer_3">
<g id="circle">
<path id="Vector" d="M16 0C7.1635 0 0 7.1635 0 16C0 24.8365 7.1635 32 16 32C24.8365 32 32 24.8365 32 16C32 7.1635 24.8365 0 16 0Z" fill="#333333"/>
</g>
<path id="Cat_3_" d="M19.296 25.0835H16.876H14.454C14.454 25.0835 14.461 23.6465 14.454 22.6615C11.1395 23.3755 10.2145 20.845 10.2145 20.845C9.60954 19.6335 9.00304 19.0285 9.00304 19.0285C7.79154 18.3095 9.00304 18.4235 9.00304 18.4235C10.2145 18.4235 10.8195 19.635 10.8195 19.635C11.8825 21.4395 13.7735 21.149 14.4525 20.8465C14.4525 20.2415 14.7175 19.3255 15.0575 19.03C12.4125 18.7325 10.211 17.2135 10.211 14.1855C10.211 11.1575 10.819 10.5525 11.4245 9.94597C11.3025 9.64747 10.795 8.54347 11.443 6.91797C11.443 6.91797 12.633 6.91797 13.8445 8.73447C14.4445 8.13447 16.2665 8.12947 16.8725 8.12947C17.4765 8.12947 19.2995 8.13447 19.8995 8.73447C21.111 6.91797 22.304 6.91797 22.304 6.91797C22.952 8.54347 22.445 9.64747 22.3225 9.94597C22.9275 10.551 23.534 11.1575 23.534 14.1855C23.534 17.2135 21.3355 18.7315 18.6895 19.03C19.0305 19.3255 19.2945 20.3675 19.2945 20.8465L19.296 25.0835Z" fill="white"/>
</g>
</g>
</svg>
