<svg width="32" height="32" viewBox="0 0 32 32" fill="none" xmlns="http://www.w3.org/2000/svg">
<g id="734395_instagram_media_online_photo_social_icon 1">
<g id="circle">
<path id="Vector" d="M16 0C7.163 0 0 7.163 0 16C0 24.836 7.163 32 16 32C24.837 32 32 24.836 32 16C32 7.163 24.837 0 16 0Z" fill="#333333"/>
</g>
<path id="Vector_2" d="M22.0569 7.93005H9.94295C8.80295 7.93005 7.92395 8.80905 7.92395 9.94905V22.0621C7.92395 23.2021 8.80295 24.0811 9.94295 24.0811H22.056C23.196 24.0811 24.075 23.2021 24.075 22.0621V9.94905C24.076 8.80805 23.1959 7.93005 22.0569 7.93005ZM16.0119 12.8331C17.8029 12.8331 19.2549 14.2401 19.2549 15.9751C19.2549 17.7101 17.8029 19.1171 16.0119 19.1171C14.2219 19.1171 12.77 17.7091 12.77 15.9751C12.77 14.2391 14.2219 12.8331 16.0119 12.8331ZM22.0569 21.5571C22.0569 21.9111 21.906 22.0621 21.552 22.0621H10.448C10.095 22.0621 9.94295 21.9111 9.94295 21.5571V14.4911L11.201 14.7651C11.066 15.2041 10.993 15.6681 10.993 16.1501C10.993 18.8341 13.241 21.0131 16.011 21.0131C18.783 21.0131 21.03 18.8351 21.03 16.1501C21.03 15.6681 20.957 15.2041 20.822 14.7651L22.056 14.4911V21.5571H22.0569ZM22.0569 12.4721C22.0569 12.7511 21.831 12.9771 21.552 12.9771H19.533C19.254 12.9771 19.028 12.7511 19.028 12.4721V10.4531C19.028 10.1741 19.254 9.94805 19.533 9.94805H21.552C21.831 9.94805 22.0569 10.1741 22.0569 10.4531V12.4721Z" fill="white"/>
</g>
</svg>
