<svg width="32" height="32" viewBox="0 0 32 32" fill="none" xmlns="http://www.w3.org/2000/svg">
<g id="734393_in_linked_media_online_social_icon 1">
<g id="circle">
<path id="Vector" d="M16 0C7.163 0 0 7.163 0 16C0 24.836 7.163 32 16 32C24.837 32 32 24.836 32 16C32 7.163 24.837 0 16 0Z" fill="#333333"/>
</g>
<path id="Vector_2" d="M24.294 22.942V16.805C24.294 13.517 22.539 11.987 20.198 11.987C18.309 11.987 17.463 13.026 16.992 13.755V12.238H13.434C13.481 13.243 13.434 22.942 13.434 22.942H16.992V16.964C16.992 16.645 17.015 16.325 17.109 16.097C17.366 15.458 17.951 14.796 18.934 14.796C20.222 14.796 20.737 15.777 20.737 17.216V22.943L24.294 22.942ZM9.68505 10.777C10.925 10.777 11.698 9.954 11.698 8.927C11.675 7.877 10.925 7.078 9.70805 7.078C8.49104 7.078 7.69604 7.877 7.69604 8.927C7.69604 9.955 8.46804 10.777 9.66304 10.777H9.68505ZM11.464 22.942V12.238H7.90704V22.942H11.464Z" fill="white"/>
</g>
</svg>
